<svg width="32" height="32" viewBox="0 0 32 32" fill="none" xmlns="http://www.w3.org/2000/svg">
<rect width="32" height="32" rx="4" fill="black"/>
<path d="M17.168 17.918H12.8203V15.1758H17.168C17.8398 15.1758 18.3867 15.0664 18.8086 14.8477C19.2305 14.6211 19.5391 14.3086 19.7344 13.9102C19.9297 13.5117 20.0273 13.0625 20.0273 12.5625C20.0273 12.0547 19.9297 11.582 19.7344 11.1445C19.5391 10.707 19.2305 10.3555 18.8086 10.0898C18.3867 9.82422 17.8398 9.69141 17.168 9.69141H14.0391V24H10.5234V6.9375H17.168C18.5039 6.9375 19.6484 7.17969 20.6016 7.66406C21.5625 8.14062 22.2969 8.80078 22.8047 9.64453C23.3125 10.4883 23.5664 11.4531 23.5664 12.5391C23.5664 13.6406 23.3125 14.5938 22.8047 15.3984C22.2969 16.2031 21.5625 16.8242 20.6016 17.2617C19.6484 17.6992 18.5039 17.918 17.168 17.918Z" fill="white"/>
</svg>
